<svg width="115" height="138" viewBox="0 0 115 138" fill="none" xmlns="http://www.w3.org/2000/svg">
<g clip-path="url(#clip0_14_2)">
<path d="M62.2917 22.4998V17.25C62.2917 14.076 60.145 11.5 57.5 11.5C54.855 11.5 52.7084 14.076 52.7084 17.25V22.5515C54.28 22.8275 55.8757 23 57.5 23C59.0909 23 60.6913 22.7987 62.2917 22.4998Z" fill="white"/>
<path d="M52.7084 92.529V132.25C52.7084 135.424 54.855 138 57.5 138C60.145 138 62.2917 135.424 62.2917 132.25V92.4887C60.7105 92.1955 59.1148 92 57.5 92C55.8709 92 54.28 92.2185 52.7084 92.529Z" fill="white"/>
<path d="M103.308 12.3107C101.315 8.85499 98.3106 6.61249 94.8414 5.97999C91.3195 5.33599 87.6539 6.51474 84.8125 9.19424C76.6714 16.8762 69.3977 21.16 62.2916 22.494V92.4887C71.6402 94.2137 80.3083 100.533 86.2787 105.995C88.5835 108.106 91.4154 109.238 94.2664 109.238C94.8989 109.238 95.5362 109.181 96.1639 109.066C99.5612 108.451 102.537 106.266 104.535 102.908C112.259 89.9012 115.005 70.3282 115.005 57.5172C115.005 42.6132 110.309 24.4432 103.313 12.305L103.308 12.3107Z" fill="white"/>
<path d="M28.8746 9.19999C26.0331 6.52049 22.3723 5.33599 18.8456 5.98574C15.3765 6.61249 12.3721 8.86074 10.3787 12.3165C2.72646 25.599 0 44.3785 0 57.523C0 72.8065 4.73417 91.0512 11.7875 102.919C13.7856 106.271 16.7565 108.456 20.1537 109.072C23.6133 109.71 27.2215 108.583 30.039 105.995C36.086 100.464 43.8965 94.2827 52.7035 92.529V22.5515C42.4925 20.7402 33.6135 13.6677 28.8746 9.19999Z" fill="white"/>
</g>
<defs>
<clipPath id="clip0_14_2">
<rect width="115" height="138" fill="white"/>
</clipPath>
</defs>
</svg>
