<svg width="48" height="48" viewBox="0 0 48 48" fill="none" xmlns="http://www.w3.org/2000/svg">
<path d="M48.17 30.732L43.43 20.556C42.952 18.828 42.206 17.208 41.18 15.798L47.974 7.82199L45.73 5.87199C40.94 1.71199 34.804 -0.34801 28.432 0.0499897C15.644 0.86599 6.00001 11.446 6.00001 24.658V34.366C6.00001 35.806 5.65001 37.24 4.98601 38.514L0.0620117 48H10.124C14.206 48 18 45.798 20.022 42.256C21.314 39.992 21.998 37.42 21.998 34.812V24C21.998 21.75 22.954 19.592 24.62 18.078C26.308 16.544 28.508 15.822 30.794 16.038C34.686 16.408 37.734 19.866 37.956 24H31.998V28L38.16 30.31L39.6 42H30.334L26.712 33.846L25.028 40.3C24.672 41.66 24.202 42.998 23.506 44.22C23.502 44.228 23.498 44.234 23.494 44.242C22.676 45.676 21.622 46.924 20.426 48.002H46.396L44.454 32.466L48.168 30.734L48.17 30.732ZM31.366 10.066C27.422 9.68399 23.496 10.992 20.584 13.64C17.672 16.288 16 20.066 16 24.002V34.814C16 36.378 15.59 37.922 14.812 39.28C13.854 40.958 12.058 42 10.124 42H9.93601L10.308 41.284C11.416 39.16 12 36.768 12 34.368V24.66C12 14.656 19.228 6.65199 28.814 6.03999C32.574 5.79799 36.25 6.71399 39.394 8.64199L36.722 11.778C35.102 10.852 33.292 10.25 31.366 10.066Z" fill="#FF5A58"/>
</svg>
